<svg height="581pt" viewBox="-18 -18 581.33569 581" width="581pt" xmlns="http://www.w3.org/2000/svg"><path d="m366.171875 459.933594c-4.707031 0-8.519531-3.804688-8.519531-8.511719v-58.253906c0-4.707031 3.8125-8.515625 8.519531-8.515625s8.515625 3.808594 8.515625 8.515625v58.253906c0 4.707031-3.808594 8.511719-8.515625 8.511719zm0 0"/><path d="m536.480469 545.09375h-527.964844c-4.707031 0-8.515625-3.8125-8.515625-8.519531 0-51.648438 42.023438-93.671875 93.671875-93.671875 4.707031 0 8.515625 3.8125 8.515625 8.519531s-3.808594 8.511719-8.515625 8.511719c-39.386719 0-71.914063 29.855468-76.164063 68.125h509.988282c-4.25-38.269532-36.785156-68.125-76.164063-68.125-4.707031 0-8.519531-3.804688-8.519531-8.511719s3.8125-8.519531 8.519531-8.519531c51.648438 0 93.671875 42.023437 93.671875 93.671875-.007812 4.707031-3.816406 8.519531-8.523437 8.519531zm0 0"/><path d="m178.828125 459.933594c-4.707031 0-8.515625-3.804688-8.515625-8.511719v-56.660156c0-4.707031 3.808594-8.511719 8.515625-8.511719s8.515625 3.804688 8.515625 8.511719v56.660156c0 4.707031-3.808594 8.511719-8.515625 8.511719zm0 0"/><path d="m161.796875 545.09375h-153.28125c-4.707031 0-8.515625-3.8125-8.515625-8.519531 0-51.648438 42.023438-93.671875 93.671875-93.671875h25.546875c4.707031 0 8.511719 3.8125 8.511719 8.519531s-3.804688 8.511719-8.511719 8.511719h-25.546875c-39.386719 0-71.914063 29.855468-76.164063 68.125h144.289063c4.707031 0 8.515625 3.808594 8.515625 8.515625s-3.808594 8.519531-8.515625 8.519531zm0 0"/><path d="m536.480469 545.09375h-153.28125c-4.707031 0-8.511719-3.8125-8.511719-8.519531s3.804688-8.515625 8.511719-8.515625h144.289062c-4.246093-38.269532-36.777343-68.125-76.164062-68.125h-25.546875c-4.707032 0-8.511719-3.804688-8.511719-8.511719s3.804687-8.519531 8.511719-8.519531h25.546875c51.652343 0 93.671875 42.023437 93.671875 93.671875 0 4.707031-3.808594 8.519531-8.515625 8.519531zm0 0"/><path d="m221.402344 545.09375h-76.636719c-3.761719 0-7.078125-2.472656-8.160156-6.074219l-23.726563-79.085937h-44.753906c-3.441406 0-6.554688-2.070313-7.863281-5.253906-1.328125-3.1875-.589844-6.84375 1.839843-9.28125l59.613282-59.609376c1.714844-1.722656 4.082031-2.632812 6.496094-2.480468 2.410156.132812 4.660156 1.292968 6.175781 3.179687l68.125 85.152344c.472656.601563.875 1.269531 1.171875 1.976563l25.546875 59.605468c1.128906 2.632813.855469 5.648438-.710938 8.042969-1.585937 2.382813-4.253906 3.828125-7.117187 3.828125zm-70.300782-17.035156h57.390626l-20.003907-46.675782-61.460937-76.824218-38.34375 38.34375h30.535156c3.757812 0 7.074219 2.472656 8.15625 6.070312zm0 0"/><path d="m400.230469 545.09375h-76.636719c-2.859375 0-5.53125-1.445312-7.109375-3.828125-1.574219-2.394531-1.847656-5.410156-.714844-8.042969l25.546875-59.605468c.296875-.707032.695313-1.375 1.167969-1.976563l68.125-85.152344c1.515625-1.886719 3.769531-3.046875 6.179687-3.179687 2.445313-.171875 4.789063.757812 6.492188 2.480468l59.613281 59.609376c2.4375 2.441406 3.167969 6.09375 1.84375 9.28125-1.3125 3.1875-4.421875 5.253906-7.867187 5.253906h-44.753906l-23.726563 79.085937c-1.078125 3.601563-4.398437 6.074219-8.160156 6.074219zm-63.722657-17.035156h57.386719l23.726563-79.085938c1.082031-3.597656 4.398437-6.070312 8.15625-6.070312h30.539062l-38.34375-38.34375-61.464844 76.824218zm0 0"/><path d="m415.269531 226.875c-.753906 0-1.496093-.105469-2.257812-.304688-4.53125-1.238281-7.210938-5.917968-5.96875-10.460937l26.492187-97.015625c3.105469-11.382812-3.789062-23.285156-16.039062-27.675781l-80.496094-29.019531c-4.425781-1.589844-6.722656-6.472657-5.128906-10.898438 1.597656-4.425781 6.496094-6.730469 10.894531-5.121094l80.492187 29.019532c20.691407 7.414062 32.175782 28.132812 26.714844 48.179687l-26.496094 97.023437c-1.042968 3.78125-4.464843 6.273438-8.207031 6.273438zm0 0"/><path d="m130.328125 243.667969c-3.871094 0-7.386719-2.667969-8.292969-6.609375l-29.007812-126.152344c-4.050782-17.65625 4.929687-35.816406 21.875-44.417969l22.867187-15.933593c3.859375-2.679688 9.164063-1.734376 11.851563 2.121093 2.683594 3.859375 1.734375 9.164063-2.121094 11.851563l-23.378906 16.289062c-.355469.246094-.742188.476563-1.128906.667969-10.351563 5.050781-15.726563 15.339844-13.363282 25.609375l29.007813 126.152344c1.058593 4.582031-1.808594 9.152344-6.398438 10.203125-.636719.152343-1.277343.21875-1.910156.21875zm0 0"/><path d="m167.765625 48.558594c-2.695313 0-5.335937-1.273438-6.992187-3.648438-2.683594-3.859375-1.734376-9.167968 2.121093-11.851562l45.128907-31.433594c2.261718-1.5742188 5.152343-1.972656 7.753906-1.023438l83.566406 30.128907c4.421875 1.597656 6.71875 6.46875 5.125 10.894531-1.589844 4.429688-6.492188 6.753906-10.894531 5.121094l-79.429688-28.632813-41.519531 28.914063c-1.484375 1.035156-3.179688 1.53125-4.859375 1.53125zm0 0"/><path d="m417.265625 281.105469c-4.707031 0-8.519531-3.804688-8.519531-8.511719s3.8125-8.515625 8.519531-8.515625c9.382813 0 17.03125-7.640625 17.03125-17.03125s-7.648437-17.03125-17.03125-17.03125c-4.707031 0-8.519531-3.808594-8.519531-8.515625s3.8125-8.519531 8.519531-8.519531c18.785156 0 34.058594 15.28125 34.058594 34.066406s-15.273438 34.058594-34.058594 34.058594zm0 0"/><path d="m124.953125 280.960938c-.304687 0-.613281-.019532-.917969-.050782-17.3125-1.878906-30.363281-16.433594-30.363281-33.863281 0-18.785156 15.277344-34.066406 34.058594-34.066406 4.707031 0 8.519531 3.8125 8.519531 8.519531s-3.8125 8.515625-8.519531 8.515625c-9.382813 0-17.027344 7.640625-17.027344 17.03125 0 8.710937 6.519531 15.992187 15.15625 16.925781 4.683594.507813 8.0625 4.707032 7.554687 9.386719-.472656 4.367187-4.167968 7.601563-8.460937 7.601563zm0 0"/><path d="m297.257812 460.761719-49.371093-.210938c-13.296875-.324219-50.207031-33.230469-109.769531-97.871093-14.40625-13.90625-21.007813-31.539063-18.316407-49.390626l8.472657-202.851562c.113281-2.640625 1.445312-5.089844 3.609374-6.609375 2.175782-1.523437 4.917969-1.960937 7.449219-1.152344l106.453125 33.394531 130.140625-27.21875c10.066407-2.085937 20.523438.296876 28.644531 6.636719 8.128907 6.320313 13.027344 15.847657 13.460938 26.128907l7.171875 171.699218c2.691406 17.835938-3.917969 35.464844-18.628906 49.703125-59.332031 64.523438-96.199219 97.5-109.324219 97.730469v.011719zm.917969-16.988281h.011719zm-50.203125-.238282 49.195313.191406c10.695312-3.523437 58.523437-50.523437 97.214843-92.589843 11.085938-10.746094 15.910157-23.277344 13.921876-35.632813-.046876-.332031-.082032-.664062-.097657-1l-7.195312-172.171875c-.226563-5.277343-2.734375-10.164062-6.902344-13.410156-4.164063-3.238281-9.515625-4.472656-14.695313-3.40625l-132.3125 27.671875c-1.441406.320312-2.902343.234375-4.300781-.207031l-97.980469-30.734375-8.023437 192.242187c-.015625.332031-.050781.664063-.097656 1-2 12.355469 2.835937 24.898438 13.59375 35.300781 39.0625 42.359376 86.953125 89.289063 97.679687 92.746094zm.300782.09375"/><path d="m170.3125 93.761719c-2.394531 0-4.785156-1.003907-6.460938-2.972657l-51.09375-59.609374c-2.496093-2.902344-2.742187-7.109376-.609374-10.289063 2.128906-3.179687 6.121093-4.554687 9.765624-3.320313l102.183594 34.058594c4.460938 1.480469 6.871094 6.304688 5.378906 10.773438-1.484374 4.453125-6.253906 6.882812-10.765624 5.378906l-73.023438-24.335938 31.085938 36.265626c3.066406 3.570312 2.652343 8.941406-.925782 12-1.601562 1.378906-3.574218 2.050781-5.535156 2.050781zm0 0"/><path d="m272.5 315.171875c-.332031 0-.671875-.019531-1.011719-.058594l-143.503906-17.03125c-4.421875-.527343-7.691406-4.375-7.503906-8.832031l4.085937-93.667969c.101563-2.375 1.191406-4.589843 3-6.125 1.816406-1.535156 4.210938-2.296875 6.539063-1.953125l138.394531 16.898438 138.402344-16.898438c2.347656-.34375 4.730468.414063 6.539062 1.953125 1.8125 1.53125 2.898438 3.75 3 6.121094l4.085938 93.671875c.1875 4.457031-3.082032 8.304688-7.503906 8.828125l-143.515626 17.035156c-.335937.039063-.679687.058594-1.007812.058594zm-134.664062-33.078125 134.664062 15.988281 134.667969-15.988281-3.339844-76.570312-130.296875 15.90625c-.683594.085937-1.378906.085937-2.0625 0l-130.289062-15.90625zm0 0"/><path d="m383.199219 102.28125c-2.046875 0-4.097657-.730469-5.730469-2.214844l-71.527344-65.039062 8.8125 30.855468c1.285156 4.515626-1.328125 9.226563-5.855468 10.523438-4.472657 1.257812-9.230469-1.320312-10.527344-5.851562l-17.027344-59.609376c-1.042969-3.664062.460938-7.570312 3.695312-9.574218 3.214844-2 7.394532-1.625 10.21875.9375l93.671876 85.152344c3.480468 3.167968 3.738281 8.546874.578124 12.03125-1.683593 1.847656-3.992187 2.789062-6.308593 2.789062zm0 0"/><path d="m246.953125 272.59375-42.578125-42.578125h-31.9375l9.730469 14.59375c7.402343 11.101563 18.914062 18.808594 31.996093 21.425781zm0 0"/><path d="m300.175781 272.59375 42.578125-42.578125h31.933594l-9.730469 14.59375c-7.402343 11.101563-18.910156 18.808594-31.992187 21.425781zm0 0"/><path d="m306.5625 366.265625h-68.125c-4.707031 0-8.515625-3.808594-8.515625-8.515625s3.808594-8.519531 8.515625-8.519531h68.125c4.707031 0 8.511719 3.8125 8.511719 8.519531s-3.804688 8.515625-8.511719 8.515625zm0 0"/></svg>